<svg width="100" height="100" viewBox="0 0 100 100" fill="none" xmlns="http://www.w3.org/2000/svg">
<path fill-rule="evenodd" clip-rule="evenodd" d="M31.1042 4.44166C35.9917 4.21666 37.55 4.16666 50 4.16666C62.45 4.16666 64.0084 4.22082 68.8917 4.44166C73.775 4.66249 77.1083 5.44166 80.025 6.57082C83.0792 7.72499 85.85 9.52916 88.1417 11.8625C90.475 14.15 92.275 16.9167 93.425 19.975C94.5584 22.8917 95.3334 26.225 95.5584 31.1C95.7834 35.9958 95.8334 37.5542 95.8334 50C95.8334 62.45 95.7792 64.0083 95.5584 68.8958C95.3375 73.7708 94.5584 77.1042 93.425 80.0208C92.275 83.0795 90.472 85.8508 88.1417 88.1417C85.85 90.475 83.0792 92.275 80.025 93.425C77.1083 94.5583 73.775 95.3333 68.9 95.5583C64.0083 95.7833 62.45 95.8333 50 95.8333C37.55 95.8333 35.9917 95.7792 31.1042 95.5583C26.2292 95.3375 22.8959 94.5583 19.9792 93.425C16.9205 92.2748 14.1493 90.4719 11.8584 88.1417C9.5266 85.8528 7.72216 83.0828 6.57085 80.025C5.44169 77.1083 4.66669 73.775 4.44169 68.9C4.21669 64.0042 4.16669 62.4458 4.16669 50C4.16669 37.55 4.22085 35.9917 4.44169 31.1083C4.66252 26.225 5.44169 22.8917 6.57085 19.975C7.72387 16.917 9.52968 14.1471 11.8625 11.8583C14.1502 9.52708 16.9187 7.72267 19.975 6.57082C22.8917 5.44166 26.225 4.66666 31.1 4.44166H31.1042ZM68.5208 12.6917C63.6875 12.4708 62.2375 12.425 50 12.425C37.7625 12.425 36.3125 12.4708 31.4792 12.6917C27.0084 12.8958 24.5834 13.6417 22.9667 14.2708C20.8292 15.1042 19.3 16.0917 17.6959 17.6958C16.1752 19.1752 15.0049 20.9762 14.2709 22.9667C13.6417 24.5833 12.8959 27.0083 12.6917 31.4792C12.4709 36.3125 12.425 37.7625 12.425 50C12.425 62.2375 12.4709 63.6875 12.6917 68.5208C12.8959 72.9917 13.6417 75.4167 14.2709 77.0333C15.0042 79.0208 16.175 80.825 17.6959 82.3042C19.175 83.825 20.9792 84.9958 22.9667 85.7292C24.5834 86.3583 27.0084 87.1042 31.4792 87.3083C36.3125 87.5292 37.7584 87.575 50 87.575C62.2417 87.575 63.6875 87.5292 68.5208 87.3083C72.9917 87.1042 75.4167 86.3583 77.0334 85.7292C79.1709 84.8958 80.7 83.9083 82.3042 82.3042C83.825 80.825 84.9959 79.0208 85.7292 77.0333C86.3584 75.4167 87.1042 72.9917 87.3084 68.5208C87.5292 63.6875 87.575 62.2375 87.575 50C87.575 37.7625 87.5292 36.3125 87.3084 31.4792C87.1042 27.0083 86.3584 24.5833 85.7292 22.9667C84.8959 20.8292 83.9084 19.3 82.3042 17.6958C80.8247 16.1753 79.0238 15.005 77.0334 14.2708C75.4167 13.6417 72.9917 12.8958 68.5208 12.6917V12.6917ZM44.1459 64.1292C47.4153 65.4901 51.0558 65.6738 54.4456 64.6488C57.8353 63.6239 60.7642 61.4538 62.7317 58.5093C64.6993 55.5649 65.5836 52.0286 65.2335 48.5046C64.8835 44.9806 63.3209 41.6874 60.8125 39.1875C59.2135 37.5895 57.2801 36.3659 55.1514 35.6048C53.0227 34.8437 50.7518 34.564 48.5021 34.7859C46.2524 35.0078 44.0798 35.7257 42.1409 36.888C40.2019 38.0503 38.5448 39.6281 37.2888 41.5077C36.0328 43.3873 35.2091 45.522 34.8772 47.7582C34.5452 49.9943 34.7131 52.2762 35.3689 54.4396C36.0247 56.6031 37.152 58.5942 38.6697 60.2697C40.1874 61.9451 42.0576 63.2633 44.1459 64.1292ZM33.3417 33.3417C35.5293 31.1541 38.1264 29.4188 40.9846 28.2348C43.8428 27.0509 46.9063 26.4415 50 26.4415C53.0938 26.4415 56.1572 27.0509 59.0154 28.2348C61.8737 29.4187 64.4707 31.1541 66.6584 33.3417C68.846 35.5293 70.5813 38.1263 71.7652 40.9846C72.9491 43.8428 73.5585 46.9062 73.5585 50C73.5585 53.0937 72.9491 56.1572 71.7652 59.0154C70.5813 61.8737 68.846 64.4707 66.6584 66.6583C62.2403 71.0764 56.2481 73.5584 50 73.5584C43.7519 73.5584 37.7597 71.0764 33.3417 66.6583C28.9236 62.2403 26.4416 56.2481 26.4416 50C26.4416 43.7519 28.9236 37.7597 33.3417 33.3417V33.3417ZM78.7834 29.95C79.3255 29.4386 79.7594 28.8237 80.0596 28.1415C80.3598 27.4594 80.5201 26.724 80.5309 25.9789C80.5418 25.2337 80.403 24.4939 80.1229 23.8034C79.8427 23.1128 79.4268 22.4855 78.8999 21.9585C78.3729 21.4315 77.7456 21.0156 77.055 20.7355C76.3644 20.4553 75.6246 20.3166 74.8795 20.3274C74.1343 20.3383 73.3989 20.4985 72.7168 20.7987C72.0347 21.0989 71.4197 21.5329 70.9083 22.075C69.9138 23.1293 69.3693 24.5297 69.3904 25.9789C69.4116 27.4281 69.9967 28.812 71.0215 29.8368C72.0464 30.8617 73.4303 31.4468 74.8795 31.4679C76.3287 31.489 77.7291 30.9445 78.7834 29.95V29.95Z" fill="#828282"/>
</svg>
