<svg width="100" height="100" viewBox="0 0 100 100" fill="none" xmlns="http://www.w3.org/2000/svg">
<path fill-rule="evenodd" clip-rule="evenodd" d="M4.16669 11.825C4.16669 9.79389 4.97355 7.84596 6.40976 6.40974C7.84598 4.97352 9.79391 4.16667 11.825 4.16667H88.1667C89.1733 4.16502 90.1703 4.36193 91.1006 4.74611C92.031 5.13029 92.8764 5.69421 93.5886 6.40557C94.3007 7.11693 94.8655 7.96177 95.2507 8.89171C95.6359 9.82165 95.8339 10.8184 95.8334 11.825V88.1667C95.8345 89.1734 95.637 90.1705 95.2524 91.1009C94.8678 92.0313 94.3035 92.8767 93.5918 93.5888C92.8801 94.3009 92.035 94.8657 91.1048 95.2508C90.1746 95.6359 89.1776 95.8339 88.1709 95.8333H11.825C10.819 95.8333 9.82277 95.6351 8.89334 95.25C7.96392 94.8649 7.11949 94.3004 6.40829 93.5888C5.69709 92.8772 5.13307 92.0325 4.74845 91.1028C4.36383 90.1732 4.16614 89.1769 4.16669 88.1708V11.825ZM40.45 39.1167H52.8625V45.35C54.6542 41.7667 59.2375 38.5417 66.125 38.5417C79.3292 38.5417 82.4584 45.6792 82.4584 58.775V83.0333H69.0959V61.7583C69.0959 54.3 67.3042 50.0917 62.7542 50.0917C56.4417 50.0917 53.8167 54.6292 53.8167 61.7583V83.0333H40.45V39.1167ZM17.5334 82.4625H30.9V38.5417H17.5334V82.4583V82.4625ZM32.8125 24.2167C32.8377 25.3611 32.6341 26.4991 32.2135 27.5638C31.793 28.6285 31.164 29.5985 30.3635 30.4168C29.563 31.2351 28.6071 31.8853 27.5519 32.3292C26.4967 32.7731 25.3635 33.0017 24.2188 33.0017C23.074 33.0017 21.9408 32.7731 20.8856 32.3292C19.8304 31.8853 18.8746 31.2351 18.0741 30.4168C17.2736 29.5985 16.6446 28.6285 16.224 27.5638C15.8035 26.4991 15.5998 25.3611 15.625 24.2167C15.6745 21.9702 16.6016 19.8325 18.2079 18.2612C19.8141 16.6899 21.9718 15.8101 24.2188 15.8101C26.4658 15.8101 28.6234 16.6899 30.2297 18.2612C31.8359 19.8325 32.7631 21.9702 32.8125 24.2167V24.2167Z" fill="#828282"/>
</svg>
